<mxfile host="app.diagrams.net" modified="2022-03-25T06:45:24.761Z" agent="5.0 (Macintosh; Intel Mac OS X 10_15_7) AppleWebKit/537.36 (KHTML, like Gecko) Chrome/98.0.4758.102 Safari/537.36" etag="HAe5yzkl3xD0bH4MhA_K" version="17.1.3" type="github">
  <diagram id="sI723O7_lFSTX_Np7Y9I" name="Page-1">
    <mxGraphModel dx="1077" dy="723" grid="1" gridSize="10" guides="1" tooltips="1" connect="1" arrows="1" fold="1" page="1" pageScale="1" pageWidth="850" pageHeight="1100" math="0" shadow="0">
      <root>
        <mxCell id="0" />
        <mxCell id="1" parent="0" />
        <mxCell id="mNe1F9zRJD3SVEpFp6nF-2" value="&lt;font style=&quot;font-size: 15px&quot;&gt;Wallet: 0x1111222233334444555566677778888&lt;/font&gt;" style="strokeWidth=1;shadow=0;dashed=0;align=center;html=1;shape=mxgraph.mockup.containers.browserWindow;rSize=0;strokeColor=#666666;strokeColor2=#008cff;strokeColor3=#c4c4c4;mainText=,;recursiveResize=0;" vertex="1" parent="1">
          <mxGeometry x="40" y="50" width="450" height="240" as="geometry" />
        </mxCell>
        <mxCell id="mNe1F9zRJD3SVEpFp6nF-3" value="LitChat" style="strokeWidth=1;shadow=0;dashed=0;align=center;html=1;shape=mxgraph.mockup.containers.anchor;fontSize=17;fontColor=#666666;align=left;" vertex="1" parent="mNe1F9zRJD3SVEpFp6nF-2">
          <mxGeometry x="60" y="12" width="110" height="26" as="geometry" />
        </mxCell>
        <mxCell id="mNe1F9zRJD3SVEpFp6nF-4" value="https://lit-chat-m8iga.ondigitalocean.app/" style="strokeWidth=1;shadow=0;dashed=0;align=center;html=1;shape=mxgraph.mockup.containers.anchor;rSize=0;fontSize=17;fontColor=#666666;align=left;" vertex="1" parent="mNe1F9zRJD3SVEpFp6nF-2">
          <mxGeometry x="130" y="60" width="250" height="26" as="geometry" />
        </mxCell>
        <mxCell id="mNe1F9zRJD3SVEpFp6nF-5" value="&lt;font style=&quot;font-size: 15px&quot;&gt;Wallet: 0xAAAABBBBCCCCDDDDEEEEFFFF9999&lt;/font&gt;" style="strokeWidth=1;shadow=0;dashed=0;align=center;html=1;shape=mxgraph.mockup.containers.browserWindow;rSize=0;strokeColor=#666666;strokeColor2=#008cff;strokeColor3=#c4c4c4;mainText=,;recursiveResize=0;" vertex="1" parent="1">
          <mxGeometry x="40" y="480" width="450" height="240" as="geometry" />
        </mxCell>
        <mxCell id="mNe1F9zRJD3SVEpFp6nF-6" value="LitChat" style="strokeWidth=1;shadow=0;dashed=0;align=center;html=1;shape=mxgraph.mockup.containers.anchor;fontSize=17;fontColor=#666666;align=left;" vertex="1" parent="mNe1F9zRJD3SVEpFp6nF-5">
          <mxGeometry x="60" y="12" width="110" height="26" as="geometry" />
        </mxCell>
        <mxCell id="mNe1F9zRJD3SVEpFp6nF-7" value="https://lit-chat-m8iga.ondigitalocean.app/" style="strokeWidth=1;shadow=0;dashed=0;align=center;html=1;shape=mxgraph.mockup.containers.anchor;rSize=0;fontSize=17;fontColor=#666666;align=left;" vertex="1" parent="mNe1F9zRJD3SVEpFp6nF-5">
          <mxGeometry x="130" y="60" width="250" height="26" as="geometry" />
        </mxCell>
        <mxCell id="mNe1F9zRJD3SVEpFp6nF-8" value="" style="aspect=fixed;perimeter=ellipsePerimeter;html=1;align=center;shadow=0;dashed=0;spacingTop=3;image;image=img/lib/active_directory/internet_cloud.svg;fontSize=15;" vertex="1" parent="1">
          <mxGeometry x="560" y="290" width="220.48" height="138.9" as="geometry" />
        </mxCell>
        <mxCell id="mNe1F9zRJD3SVEpFp6nF-9" value="" style="shape=image;verticalLabelPosition=bottom;labelBackgroundColor=default;verticalAlign=top;aspect=fixed;imageAspect=0;image=https://lit-chat-m8iga.ondigitalocean.app/lit-logo.0afef823.png;" vertex="1" parent="1">
          <mxGeometry x="530" y="70" width="70" height="70" as="geometry" />
        </mxCell>
        <mxCell id="mNe1F9zRJD3SVEpFp6nF-11" value="" style="shape=image;verticalLabelPosition=bottom;labelBackgroundColor=default;verticalAlign=top;aspect=fixed;imageAspect=0;image=https://lit-chat-m8iga.ondigitalocean.app/web-playground-logo.377075ed.svg;" vertex="1" parent="1">
          <mxGeometry x="670" y="125" width="90" height="90" as="geometry" />
        </mxCell>
        <mxCell id="mNe1F9zRJD3SVEpFp6nF-12" value="" style="shape=image;verticalLabelPosition=bottom;labelBackgroundColor=default;verticalAlign=top;aspect=fixed;imageAspect=0;image=https://lit-chat-m8iga.ondigitalocean.app/web-playground-logo.377075ed.svg;" vertex="1" parent="1">
          <mxGeometry x="670" y="510" width="90" height="90" as="geometry" />
        </mxCell>
        <mxCell id="mNe1F9zRJD3SVEpFp6nF-13" value="" style="shape=image;verticalLabelPosition=bottom;labelBackgroundColor=default;verticalAlign=top;aspect=fixed;imageAspect=0;image=https://lit-chat-m8iga.ondigitalocean.app/lit-logo.0afef823.png;" vertex="1" parent="1">
          <mxGeometry x="550" y="630" width="70" height="70" as="geometry" />
        </mxCell>
      </root>
    </mxGraphModel>
  </diagram>
</mxfile>
